<svg width="48" height="48" viewBox="0 0 48 48" fill="none" xmlns="http://www.w3.org/2000/svg">
<rect width="48" height="48" fill="#323238"/>
<g clip-path="url(#clip0_61385_212)">
<path d="M36.5256 19.2396C36.5701 18.2113 36.2194 17.2066 35.5503 16.446C34.8812 15.6855 33.9485 15.2312 32.9568 15.1828C30.2854 15.053 27.5612 15 24.7787 15H23.9112C21.1341 15 18.4045 15.0503 15.7332 15.1828C14.7412 15.2344 13.8093 15.6913 13.1413 16.4534C12.4734 17.2156 12.1237 18.221 12.1687 19.2497C12.0488 21.0331 11.9951 22.8093 12.0004 24.5899C12.0056 26.3706 12.0488 28.1495 12.1643 29.9348C12.1173 30.9651 12.4659 31.9727 13.1338 32.7371C13.8016 33.5016 14.7344 33.9605 15.7279 34.0135C18.5341 34.1488 21.4135 34.2082 24.3406 34.2037C27.2723 34.2134 30.1432 34.15 32.9532 34.0135C33.9468 33.9614 34.88 33.5034 35.5486 32.7397C36.2173 31.976 36.567 30.9688 36.5212 29.9384C36.6367 28.1532 36.6896 26.3734 36.6852 24.589C36.6946 22.8059 36.6414 21.0228 36.5256 19.2396ZM21.9787 29.4942V19.6702L28.9709 24.5799L21.9787 29.4942Z" fill="white"/>
</g>
<defs>
<clipPath id="clip0_61385_212">
<rect width="24.6857" height="19.2" fill="white" transform="translate(12 14.5712)"/>
</clipPath>
</defs>
</svg>
